<svg xmlns="http://www.w3.org/2000/svg" fill="none" viewBox="0 0 19 19"><path fill="#2E86ED" d="m17.0192 9.49707 1.7065-1.67011c.5087-.48157.2715-1.33739-.3957-1.49696l-2.325-.59338.6554-2.30134c.1852-.66196-.4389-1.28633-1.1007-1.10108l-2.3005.65561L12.666.664127c-.157-.65679993-1.0224-.897009-1.4964-.395883L9.50002 1.98797 7.8305.268281c-.46869-.495449-1.33768-.2684501-1.49644.395883L5.74091 2.98985 3.4403 2.33424c-.66192-.18533-1.28587.43926-1.1007 1.10107l.65539 2.30135-2.324906.59338c-.66752471.1596-.904246 1.01557-.395772 1.49692L1.98079 9.49707.274312 11.1671c-.508696.4816-.27149288 1.3374.395735 1.497l2.324903.5934-.65539 2.3013c-.18521.662.43897 1.2863 1.10071 1.1011l2.30056-.6556.59316 2.3257c.16473.6893 1.02778.8913 1.49644.3959l1.66959-1.7071 1.66948 1.7071c.4639.5005 1.3355.2778 1.4965-.3959l.5931-2.3257 2.3006.6556c.6619.1853 1.2859-.4393 1.1007-1.1011l-.6554-2.3013 2.3249-.5934c.6675-.1596.9042-1.0156.3958-1.497l-1.7065-1.67003Z"/><path fill="#fff" d="M7.9143 12.6434 4.99797 9.72702c-.17521-.17521-.17521-.45929 0-.63451l.63449-.63452c.17521-.17522.45931-.17522.63452 0l1.96458 1.96461 4.20794-4.20794c.1752-.17521.4593-.17521.6345 0l.6345.63451c.1752.17521.1752.45929 0 .63451L8.54882 12.6434c-.17523.1752-.45931.1752-.63452 0Z"/></svg>